<svg viewBox="0 0 300 400" class="chair-svg">
                        
    <path d="M120,350 L180,350 L190,370 L110,370 Z" fill="#333"/>
    
    <path d="M130,120 C130,120 120,140 120,160 L120,340 C120,345 130,350 140,350 L160,350 C170,350 180,345 180,340 L180,160 C180,140 170,120 170,120 L130,120" fill="#800020"/>
    
    <path d="M130,120 C130,120 120,100 120,80 L120,40 C120,35 130,30 140,30 L160,30 C170,30 180,35 180,40 L180,80 C180,100 170,120 170,120 L130,120" fill="#800020"/>
    <!-- Neck Support -->
    <path d="M125,50 C125,45 135,40 150,40 C165,40 175,45 175,50 L175,60 C175,65 165,70 150,70 C135,70 125,65 125,60 Z" fill="#800020"/>
</svg>